<?xml version="1.0" encoding="UTF-8" standalone="no"?>
<!-- Created with Inkscape (http://www.inkscape.org/) -->

<svg
   xmlns:dc="http://purl.org/dc/elements/1.1/"
   xmlns:cc="http://creativecommons.org/ns#"
   xmlns:rdf="http://www.w3.org/1999/02/22-rdf-syntax-ns#"
   xmlns:svg="http://www.w3.org/2000/svg"
   xmlns="http://www.w3.org/2000/svg"
   xmlns:sodipodi="http://sodipodi.sourceforge.net/DTD/sodipodi-0.dtd"
   xmlns:inkscape="http://www.inkscape.org/namespaces/inkscape"
   width="300"
   height="300"
   id="svg3005"
   version="1.1"
   inkscape:version="0.92.1 r15371"
   sodipodi:docname="flower_32.svg"
   viewBox="0 0 281.25 281.25">
  <sodipodi:namedview
     id="base"
     pagecolor="#ffffff"
     bordercolor="#666666"
     borderopacity="1.0"
     inkscape:pageopacity="0.0"
     inkscape:pageshadow="2"
     inkscape:zoom="1.7266667"
     inkscape:cx="150"
     inkscape:cy="150"
     inkscape:document-units="px"
     inkscape:current-layer="layer1"
     showgrid="false"
     inkscape:window-width="1215"
     inkscape:window-height="776"
     inkscape:window-x="65"
     inkscape:window-y="24"
     inkscape:window-maximized="1"
     inkscape:snap-global="false" />
  <title
     id="title4533">Primavera 2017</title>
  <defs
     id="defs3007" />
  <metadata
     id="metadata3010">
    <rdf:RDF>
      <cc:Work
         rdf:about="">
        <dc:format>image/svg+xml</dc:format>
        <dc:type
           rdf:resource="http://purl.org/dc/dcmitype/StillImage" />
        <dc:title>Primavera 2017</dc:title>
        <dc:date>Setembro 2017</dc:date>
        <dc:creator>
          <cc:Agent>
            <dc:title>jpenrici</dc:title>
          </cc:Agent>
        </dc:creator>
        <dc:publisher>
          <cc:Agent>
            <dc:title>Open Clip Art Library</dc:title>
          </cc:Agent>
        </dc:publisher>
        <cc:license
           rdf:resource="http://creativecommons.org/publicdomain/zero/1.0/" />
        <dc:subject>
          <rdf:Bag>
            <rdf:li>plant</rdf:li>
            <rdf:li>flora</rdf:li>
            <rdf:li>flower</rdf:li>
            <rdf:li>nature</rdf:li>
            <rdf:li>clip art</rdf:li>
            <rdf:li>clipart</rdf:li>
            <rdf:li>svg</rdf:li>
          </rdf:Bag>
        </dc:subject>
      </cc:Work>
      <cc:License
         rdf:about="http://creativecommons.org/publicdomain/zero/1.0/">
        <cc:permits
           rdf:resource="http://creativecommons.org/ns#Reproduction" />
        <cc:permits
           rdf:resource="http://creativecommons.org/ns#Distribution" />
        <cc:permits
           rdf:resource="http://creativecommons.org/ns#DerivativeWorks" />
      </cc:License>
    </rdf:RDF>
  </metadata>
  <g
     inkscape:label="Camada 1"
     inkscape:groupmode="layer"
     id="layer1"
     transform="translate(0,-771.11218)">
    <g
       id="g5592"
       transform="matrix(0.95442987,0,0,0.95442987,4.8832728,48.608851)">
      <path
         inkscape:transform-center-y="-48.831463"
         inkscape:transform-center-x="-23.907466"
         inkscape:connector-curvature="0"
         id="path5065"
         d="m 180.21495,912.60451 c -0.545,-0.0846 -1.12164,-0.15039 -1.73795,-0.16991 -7.78853,-0.25612 -12.23067,10.13809 -12.23067,10.13809 -1.07289,3.34284 -1.72147,6.39021 -2.01348,9.17203 -0.13198,-0.33043 -0.27174,-0.66083 -0.42906,-0.9896 0,0 -1.83822,-0.71032 -2.06133,-1.38473 -0.31907,-0.96465 1.37213,-2.78631 1.37213,-2.78631 -6.78107,1.35194 -14.44665,13.10665 4.3568,23.69283 l -2.40761,19.95173 -1.71961,3.42285 c -3.13828,-1.48722 -6.14246,-2.77956 -8.8043,-3.85616 -0.27548,-3.44787 -1.03005,-6.60695 -2.39852,-9.33603 -11.726,-23.38252 -76.76355,-31.57041 -76.76355,-31.57041 0,0 1.290309,0.28389 3.100332,0.70772 -2.185008,-0.41458 -3.560965,-0.64538 -3.560965,-0.64538 0,0 28.350873,11.57693 44.369603,25.48526 -2.48737,1.47833 -3.73193,4.08577 -3.73193,4.08577 l -0.0307,0.89949 c -1.85263,-1.25631 -4.13247,-1.93134 -6.65094,-1.03383 -2.82576,1.00251 -3.8171,3.20126 -4.12236,5.47504 -0.72383,-0.49659 -1.50171,-0.93899 -2.34958,-1.30979 -1.49353,-0.65303 -3.90831,-0.74168 -5.134914,0.22176 -0.551909,0.43356 -0.91193,0.89401 -1.135142,1.37307 -0.0026,-1.7e-4 -0.0014,-0.0153 -0.0046,-0.0154 -2.121199,3.67512 2.51055,8.30336 7.770796,11.73132 -19.09354,-3.39409 -44.435275,1.25452 -44.435275,1.25452 0,0 0.931272,-0.081 2.247316,-0.17682 -1.555653,0.18155 -2.525286,0.3173 -2.525286,0.3173 0,0 15.986095,1.34338 29.977642,5.45889 -17.156229,-2.62341 -38.451638,0.8966 -38.451638,0.8966 0,0 0.850412,-0.0595 2.051107,-0.12673 -1.422887,0.14201 -2.308784,0.25057 -2.308784,0.25057 0,0 30.714294,3.0736 42.013247,12.35987 10.638311,8.74368 19.112521,31.69348 22.464671,41.82348 l -0.0445,3.6713 c -0.19512,-0.3472 -0.55793,-0.9597 -0.82969,-1.431 -3.07813,-7.2523 -12.29571,-27.0807 -23.087185,-31.6984 -13.106499,-5.6083 -37.625287,7.8283 -37.625287,7.8283 0,0 0.573306,-0.2395 1.402205,-0.5678 -0.897348,0.4075 -1.527447,0.7072 -1.527447,0.7072 0,0 20.886617,-4.4042 31.272789,-0.46 10.602608,4.0263 25.055465,19.942 29.563625,25.111 0.47799,0.7656 0.64095,1.0346 0.82139,1.3361 l -0.008,0.7268 c 0.68884,0.2728 1.2679,0.665 2.65219,0.1821 l -0.035,-1.3614 c 0.0158,-0.1834 0.0477,-0.4982 0.0883,-0.9201 2.05784,-2.4418 5.93304,-6.8971 10.67712,-11.6316 1.28772,3.3733 2.2068,5.9991 2.88601,8.008 -0.21758,0.6037 -0.37792,1.0541 -0.47579,1.3167 l -0.95178,1.8951 c 1.72526,1.2165 2.83905,0.8941 4.03631,0.7812 l 0.46725,-1.0199 c 0.46469,-0.3504 0.88221,-0.6627 2.09236,-1.5463 4.14623,-2.2523 11.7465,-6.268 20.87918,-10.4995 1.32314,7.9082 1.56668,15.7897 1.6052,19.6032 -0.28747,0.3878 -0.50022,0.6773 -0.62766,0.8456 l -1.09013,1.1853 c 0.91922,1.0558 1.76382,0.9747 2.61887,1.0482 l 0.55402,-0.6433 c 0.40087,-0.1817 0.76097,-0.3435 1.80005,-0.7997 8.21058,-2.4929 34.04396,-9.9154 47.06879,-8.6291 12.75718,1.2602 28.85973,14.6479 28.85973,14.6479 0,0 -0.30374,-0.4799 -0.81723,-1.2356 0.47891,0.6147 0.80657,1.0556 0.80657,1.0556 0,0 -12.49863,-22.9901 -29.08583,-24.0256 -13.57721,-0.8474 -37.60781,12.3811 -46.2332,17.4284 -0.57165,0.2703 -1.34463,0.6243 -1.76818,0.8274 l 2.80027,-3.2482 c 10.9751,-7.3851 36.66908,-23.7207 53.3801,-26.5685 1.29885,-0.226 2.6767,-0.358 4.10127,-0.4365 11.59523,3.7824 21.24352,8.7269 21.24352,8.7269 0,0 -0.62229,-0.5777 -1.65207,-1.4777 0.91891,0.7156 1.55965,1.2331 1.55965,1.2331 0,0 -3.36662,-3.4678 -8.66666,-7.8423 15.79411,2.0919 32.23453,8.0584 32.23453,8.0584 0,0 -0.75015,-0.502 -1.97848,-1.2802 1.07871,0.6103 1.83352,1.0532 1.83352,1.0532 0,0 -29.27563,-21.8256 -51.58208,-20.7347 -3.43617,-1.6776 -7.00379,-3.0725 -10.59493,-3.9745 l 10.2371,-6.13243 c -0.16024,-0.0149 -0.27868,-0.0248 -0.43025,-0.0335 0.12296,0 0.24799,0 0.36961,-0.0149 8.52665,0.42177 23.28985,-1.06583 24.63408,-6.84565 0.18699,-0.54389 0.20542,-1.1422 0.0166,-1.80635 -0.39962,-1.40652 -2.72466,-2.42908 -4.62572,-2.53444 -1.07882,-0.0611 -2.14889,-0.0259 -3.20931,0.0809 1.21968,-1.76878 1.95538,-3.70522 1.12228,-5.54928 18.86478,0.30308 36.39278,3.14774 36.39278,3.14774 0,0 -1.24153,-0.50083 -3.25622,-1.25742 1.73566,0.56481 2.95715,0.98181 2.95715,0.98181 0,0 -22.31162,-10.1478 -46.02467,-14.71359 -0.51831,-0.25192 -1.11315,-0.4621 -1.80585,-0.61238 -0.70758,-0.15506 -1.41774,-0.16952 -2.11656,-0.0829 -12.80845,-2.09986 -25.69039,-2.34046 -35.38704,1.7463 -4.13744,1.74345 -8.11456,4.44299 -11.89636,7.78667 -2.00556,-1.11053 -4.0353,-2.15619 -6.03376,-3.1251 l 1.63329,-3.56889 17.06511,-16.71374 c -0.18282,0.0196 -0.31936,0.029 -0.49486,0.0481 0.10386,-0.0304 0.20655,-0.0436 0.30877,-0.0734 11.83317,-1.5479 31.45362,-7.32731 30.55797,-15.63627 -0.006,-0.76757 -0.25377,-1.56712 -0.7905,-2.40167 -1.17511,-1.82717 -4.799,-2.6477 -7.43528,-2.31741 -1.49647,0.18749 -2.93801,0.50342 -4.33444,0.91454 1.04983,-3.3 1.03771,-6.76301 -2.47265,-9.26967 -3.12704,-2.23314 -6.93766,-2.17899 -10.50196,-1.14538 l 0.54788,-1.27071 c 0,0 -0.21602,-8.79374 -8.36587,-10.16008 z m -51.74137,52.77244 c 0.34514,0.67472 0.67244,1.37374 0.98175,2.0998 -0.50589,0.20866 -1.25225,0.291 -1.25225,0.291 -0.1951,0.18886 -0.37266,0.38515 -0.55184,0.57977 0.31411,-0.92518 0.58539,-1.92089 0.82249,-2.96991 z m 26.17471,8.60647 c 1.90904,1.59872 3.91474,3.36236 5.89223,5.25131 l -0.47983,0.95722 c -1.9509,0.0213 -3.94776,0.0856 -5.95859,0.20186 0.30712,-2.19739 0.49696,-4.34211 0.54619,-6.41039 z m -23.29918,-0.99414 c 0.98292,3.52126 1.68499,7.38499 2.16327,11.43226 -2.61792,1.10823 -4.91454,2.48233 -6.72351,4.18355 -0.5106,0.48029 -0.9941,1.00273 -1.45606,1.55554 -1.53274,-3.13663 -3.40382,-5.83652 -5.69325,-7.84396 -0.02,-0.0167 -0.0419,-0.0321 -0.0617,-0.0503 l 0.8725,-2.70845 c 6.19402,-1.54112 9.4746,-4.0501 10.89893,-6.5673 z m 67.17266,11.1287 c 0.27355,2.44123 1.76766,5.29792 5.20281,8.42252 l -4.51294,9.7883 c -2.45299,-0.3221 -4.89548,-0.3784 -7.29148,-0.094 -0.39263,0.047 -0.78914,0.1054 -1.18864,0.1683 0.26327,-1.6905 0.30186,-3.29808 0.0628,-4.78878 -0.43281,-2.69898 -1.81983,-5.30895 -3.85359,-7.79557 3.7477,-2.27188 7.42522,-4.14936 10.93171,-5.46771 0.21288,-0.0793 0.43209,-0.15513 0.64938,-0.23132 z m -35.82603,1.30719 c -3.09403,3.65934 -6.00896,7.65364 -8.71861,11.76869 l 4.90349,-10.71511 c 1.27598,-0.3857 2.55121,-0.71628 3.81508,-1.05388 z m -6.14824,1.77017 -6.82119,13.58316 c -0.28205,-0.078 -0.56123,-0.162 -0.84626,-0.2376 1.40292,-3.96779 2.64464,-7.98986 3.61614,-11.95168 1.32459,-0.49281 2.67996,-0.95797 4.05131,-1.39388 z m 16.90216,12.13849 c 0.31235,3.00457 0.0656,6.47587 -0.56601,10.16957 -0.98946,0.5672 -1.9785,1.163 -2.96603,1.7713 -1.8943,-0.7413 -4.00928,-1.5076 -6.27981,-2.2122 -0.10098,-0.169 -0.20591,-0.3354 -0.315,-0.4966 -0.097,-0.1419 -0.20046,-0.2829 -0.30546,-0.4222 3.38513,-3.0293 6.88636,-6.0081 10.43231,-8.80987 z m -62.81641,-3.66576 c 1.63866,2.03583 3.21652,4.31999 4.72626,6.74143 l -0.11078,9.2397 c -0.8729,-5.7964 -2.31459,-11.4362 -4.61548,-15.98113 z m 23.7514,6.25853 c -0.0199,3.5731 -0.1367,7.0998 -0.31799,10.4847 -0.9364,0.9297 -1.84806,1.9507 -2.73587,3.0316 -0.21655,-2.3652 -0.50041,-4.7707 -0.86665,-7.1703 1.24404,-2.2429 2.55177,-4.3871 3.92048,-6.346 z m 58.6714,13.7934 c -3.18271,2.2363 -6.31674,4.7645 -9.31895,7.4258 l 5.81795,-6.7491 c 1.20272,-0.2706 2.36747,-0.4916 3.50101,-0.6765 z m -76.52588,-11.3826 c 0.6257,1.0589 1.23954,2.1347 1.83741,3.2279 -0.76999,4.1651 -1.21177,8.5017 -1.43438,12.653 z m 49.85214,9.2005 c -0.32752,0.2171 -0.65632,0.4297 -0.98263,0.6499 -0.0413,-0.239 -0.0784,-0.4805 -0.12721,-0.7134 0.37064,0.021 0.74647,0.038 1.10972,0.065 z m 21.1288,3.3439 -11.98408,13.0345 c 3.09226,-3.8609 6.12428,-7.9979 8.67487,-12.1271 1.11918,-0.3223 2.22956,-0.6233 3.30917,-0.9076 z m -33.48987,-0.3438 c 0.62036,1.4699 1.15904,3.0762 1.62956,4.7626 -7.99329,6.2367 -14.81552,12.4941 -18.75554,16.2584 -0.83911,0.6497 -1.56267,1.2176 -2.1519,1.684 l 2.36264,-5.1653 c 4.05067,-4.4731 9.95547,-10.782 16.91524,-17.5397 z m 15.3705,6.4916 c -3.19231,9.7327 -7.27046,18.6526 -9.47634,23.246 1.75234,-4.9065 4.47954,-13.4462 5.48112,-21.5799 1.32547,-0.566 2.65712,-1.1242 3.99522,-1.6661 z m -44.77245,-2.5446 c 0.41954,0.9681 0.81963,1.9193 1.2093,2.8572 -3.64261,6.0328 -6.40052,12.1556 -8.00354,15.9903 1.19786,-3.9282 3.50893,-11.0305 6.79424,-18.8475 z m 8.48293,4.3269 c -0.41039,4.103 -0.83968,7.6234 -1.19286,10.2019 0.0671,-2.4966 0.10194,-5.5814 0.0157,-9.1325 0.38936,-0.3606 0.78328,-0.7147 1.17718,-1.0694 z m 1.51652,14.9538 c -0.11803,0.1165 -0.10966,0.1116 -0.21072,0.21 l 0.0559,-0.124 c 0.0869,-0.048 0.0603,-0.037 0.15487,-0.085 z m -19.80453,2.1867 c 0.041,0.047 0.0294,0.032 0.0675,0.079 l -3.9e-4,0.089 c -0.0318,-0.079 -0.0294,-0.074 -0.0675,-0.168 z m 45.85468,8.0569 c -0.10638,0.063 -0.0992,0.061 -0.19018,0.1178 l 0.0654,-0.078 c 0.0693,-0.027 0.0496,-0.015 0.12553,-0.037 z"
         style="fill:#cccccc;fill-opacity:1;fill-rule:evenodd;stroke:none;stroke-width:0.12246542px;stroke-linecap:butt;stroke-linejoin:miter;stroke-opacity:1" />
      <g
         id="g5503">
        <g
           id="g4833"
           transform="matrix(0.1931168,0,0,0.19659358,-32.788785,607.46403)"
           inkscape:transform-center-x="-18.428459"
           inkscape:transform-center-y="-109.03505">
          <path
             style="fill:#225500;fill-opacity:1;fill-rule:evenodd;stroke:none;stroke-width:0.9375px;stroke-linecap:butt;stroke-linejoin:miter;stroke-opacity:1"
             d="m 807.78077,2204.9087 125.92779,-916.048 -153.63203,914.731 c 13.35935,8.1726 20.07858,3.895 27.70424,1.317 z"
             id="path4722"
             inkscape:connector-curvature="0"
             sodipodi:nodetypes="cccc" />
          <g
             id="g4740">
            <g
               inkscape:transform-center-y="-347.0693"
               inkscape:transform-center-x="251.8556"
               transform="matrix(1,0,0,1.2317125,-2.1718147,-310.88383)"
               style="opacity:1;stroke:none"
               id="g4609">
              <path
                 inkscape:transform-center-y="-314.67494"
                 inkscape:transform-center-x="270.82353"
                 sodipodi:nodetypes="cacac"
                 inkscape:connector-curvature="0"
                 id="path4601"
                 d="m 790.54054,2034.0224 c 0,0 64.97613,-433.8203 -61.89672,-582.0464 -111.33379,-130.0717 -496.25965,-132.4806 -496.25965,-132.4806 0,0 308.97873,75.5665 406.12934,188.9479 118.66446,138.4896 152.02703,525.5791 152.02703,525.5791 z"
                 style="opacity:1;fill:#00da00;fill-rule:evenodd;stroke:none;stroke-width:0.9375px;stroke-linecap:butt;stroke-linejoin:miter;stroke-opacity:1" />
              <path
                 style="opacity:1;fill:#00ac00;fill-rule:evenodd;stroke:none;stroke-width:0.9375px;stroke-linecap:butt;stroke-linejoin:miter;stroke-opacity:1"
                 d="m 784.61017,2034.0313 c 0,0 124.2667,-425.678 6.31629,-578.06 -116.78491,-150.8763 -555.64224,-137.4156 -555.64224,-137.4156 0,0 210.30508,10.4706 404.26436,82.685 202.80142,75.5065 145.06159,632.7906 145.06159,632.7906 z"
                 id="path4605"
                 inkscape:connector-curvature="0"
                 sodipodi:nodetypes="cacsc"
                 inkscape:transform-center-x="204.35938"
                 inkscape:transform-center-y="-349.88939" />
            </g>
            <g
               id="g4657"
               style="opacity:1;stroke:none"
               transform="matrix(0.64507476,-0.27281525,0.31689902,0.84251278,-357.55411,703.51918)"
               inkscape:transform-center-x="268.08462"
               inkscape:transform-center-y="-196.41728">
              <path
                 style="opacity:1;fill:#006000;fill-rule:evenodd;stroke:none;stroke-width:0.9375px;stroke-linecap:butt;stroke-linejoin:miter;stroke-opacity:1"
                 d="m 790.54054,2034.0224 c 0,0 64.97613,-433.8203 -61.89672,-582.0464 -111.33379,-130.0717 -496.25965,-132.4806 -496.25965,-132.4806 0,0 308.97873,75.5665 406.12934,188.9479 118.66446,138.4896 152.02703,525.5791 152.02703,525.5791 z"
                 id="path4653"
                 inkscape:connector-curvature="0"
                 sodipodi:nodetypes="cacac"
                 inkscape:transform-center-x="270.82353"
                 inkscape:transform-center-y="-314.67494" />
              <path
                 inkscape:transform-center-y="-349.88939"
                 inkscape:transform-center-x="204.35938"
                 sodipodi:nodetypes="cacsc"
                 inkscape:connector-curvature="0"
                 id="path4655"
                 d="m 784.61017,2034.0313 c 0,0 124.2667,-425.678 6.31629,-578.06 -116.78491,-150.8763 -555.64224,-137.4156 -555.64224,-137.4156 0,0 210.30508,10.4706 404.26436,82.685 202.80142,75.5065 145.06159,632.7906 145.06159,632.7906 z"
                 style="opacity:1;fill:#003d00;fill-rule:evenodd;stroke:none;stroke-width:0.9375px;stroke-linecap:butt;stroke-linejoin:miter;stroke-opacity:1" />
            </g>
            <g
               id="g4663"
               style="opacity:1;stroke:none"
               transform="matrix(-0.95486903,-0.29702717,-0.36585208,1.1761241,2290.0859,42.655656)"
               inkscape:transform-center-x="-367.80538"
               inkscape:transform-center-y="-281.35793">
              <path
                 style="opacity:1;fill:#001700;fill-rule:evenodd;stroke:none;stroke-width:0.9375px;stroke-linecap:butt;stroke-linejoin:miter;stroke-opacity:1"
                 d="m 790.54054,2034.0224 c 0,0 64.97613,-433.8203 -61.89672,-582.0464 -111.33379,-130.0717 -496.25965,-132.4806 -496.25965,-132.4806 0,0 308.97873,75.5665 406.12934,188.9479 118.66446,138.4896 152.02703,525.5791 152.02703,525.5791 z"
                 id="path4659"
                 inkscape:connector-curvature="0"
                 sodipodi:nodetypes="cacac"
                 inkscape:transform-center-x="270.82353"
                 inkscape:transform-center-y="-314.67494" />
              <path
                 inkscape:transform-center-y="-349.88939"
                 inkscape:transform-center-x="204.35938"
                 sodipodi:nodetypes="cacsc"
                 inkscape:connector-curvature="0"
                 id="path4661"
                 d="m 784.61017,2034.0313 c 0,0 124.2667,-425.678 6.31629,-578.06 -116.78491,-150.8763 -555.64224,-137.4156 -555.64224,-137.4156 0,0 210.30508,10.4706 404.26436,82.685 202.80142,75.5065 145.06159,632.7906 145.06159,632.7906 z"
                 style="opacity:1;fill:#00e000;fill-rule:evenodd;stroke:none;stroke-width:0.9375px;stroke-linecap:butt;stroke-linejoin:miter;stroke-opacity:1" />
            </g>
            <g
               inkscape:transform-center-y="-155.25653"
               inkscape:transform-center-x="-303.8613"
               transform="matrix(-0.53492837,-0.45210756,-0.55284625,0.71036174,2348.4061,1112.5502)"
               style="opacity:1;stroke:none"
               id="g4669">
              <path
                 inkscape:transform-center-y="-314.67494"
                 inkscape:transform-center-x="270.82353"
                 sodipodi:nodetypes="cacac"
                 inkscape:connector-curvature="0"
                 id="path4665"
                 d="m 790.54054,2034.0224 c 0,0 64.97613,-433.8203 -61.89672,-582.0464 -111.33379,-130.0717 -496.25965,-132.4806 -496.25965,-132.4806 0,0 308.97873,75.5665 406.12934,188.9479 118.66446,138.4896 152.02703,525.5791 152.02703,525.5791 z"
                 style="opacity:1;fill:#006300;fill-rule:evenodd;stroke:none;stroke-width:0.9375px;stroke-linecap:butt;stroke-linejoin:miter;stroke-opacity:1" />
              <path
                 style="opacity:1;fill:#006a00;fill-rule:evenodd;stroke:none;stroke-width:0.9375px;stroke-linecap:butt;stroke-linejoin:miter;stroke-opacity:1"
                 d="m 784.61017,2034.0313 c 0,0 124.2667,-425.678 6.31629,-578.06 -116.78491,-150.8763 -555.64224,-137.4156 -555.64224,-137.4156 0,0 210.30508,10.4706 404.26436,82.685 202.80142,75.5065 145.06159,632.7906 145.06159,632.7906 z"
                 id="path4667"
                 inkscape:connector-curvature="0"
                 sodipodi:nodetypes="cacsc"
                 inkscape:transform-center-x="204.35938"
                 inkscape:transform-center-y="-349.88939" />
            </g>
          </g>
          <g
             transform="matrix(1.0862591,0,0,1.0862591,61.524551,91.010582)"
             id="g4595">
            <path
               style="fill:#008000;fill-rule:evenodd;stroke:none;stroke-width:0.86305374px;stroke-linecap:butt;stroke-linejoin:miter;stroke-opacity:1"
               d="m 745.46707,1180.5046 18.58657,175.3056 81.80702,-165.0741 c -42.85398,15.7462 -49.63075,11.7582 -100.39359,-10.2315 z"
               id="path4726"
               inkscape:connector-curvature="0"
               sodipodi:nodetypes="cccc"
               inkscape:transform-center-x="-36.626495"
               inkscape:transform-center-y="-87.742003" />
            <path
               style="fill:#371f6a;fill-opacity:1;fill-rule:evenodd;stroke:none;stroke-width:0.9375px;stroke-linecap:butt;stroke-linejoin:miter;stroke-opacity:1"
               d="m 797.32047,1202.1628 c -60.39181,-27.7397 -108.95612,-95.9713 -102.98619,-239.24961 0,0 10.2624,-87.95231 57.49852,-95.52788 59.7881,-9.58861 77.09941,69.49807 77.09941,69.49807 z"
               id="path4547"
               inkscape:connector-curvature="0"
               sodipodi:nodetypes="ccscc" />
            <path
               style="fill:#734eae;fill-opacity:1;fill-rule:evenodd;stroke:none;stroke-width:0.9375px;stroke-linecap:butt;stroke-linejoin:miter;stroke-opacity:1"
               d="m 681.85297,998.61251 c 0,0 -7.28466,16.54239 -3.83927,23.80339 2.40893,5.0767 14.5892,8.4464 14.5892,8.4464 34.55126,56.877 24.56827,127.1572 104.00428,169.5126 C 609.41946,1145.1751 638.78264,1019.8997 681.85297,998.61251 Z"
               id="path4535"
               inkscape:connector-curvature="0"
               sodipodi:nodetypes="caccc" />
            <path
               style="fill:#bc7afc;fill-opacity:1;fill-rule:evenodd;stroke:none;stroke-width:0.9375px;stroke-linecap:butt;stroke-linejoin:miter;stroke-opacity:1"
               d="m 794.72727,1201.3255 c 51.41094,-34.248 255.56953,-118.1397 200.40949,-190.4274 -9.95763,-13.04958 -33.04631,-15.08672 -48.3747,-9.2142 -78.11076,29.9253 -115.44868,132.6053 -152.03479,199.6416 z"
               id="path4539"
               inkscape:connector-curvature="0"
               sodipodi:nodetypes="csac" />
            <path
               style="fill:#e2c7f9;fill-opacity:1;fill-rule:evenodd;stroke:none;stroke-width:0.9375px;stroke-linecap:butt;stroke-linejoin:miter;stroke-opacity:1"
               d="m 781.17044,1090.3322 c 0,0 53.3078,49.7791 83.35916,41.821 30.67434,-8.1231 47.04493,-48.0011 52.80774,-79.2051 6.77605,-36.6905 12.50991,-86.05316 -24.73201,-109.16626 -41.61214,-25.82536 -85.0285,13.99309 -107.09982,45.96301 -19.06678,27.61785 -14.57014,65.97935 -4.33507,100.58735 z"
               id="path4541"
               inkscape:connector-curvature="0"
               sodipodi:nodetypes="caasac" />
            <path
               style="fill:#b799f3;fill-opacity:1;fill-rule:evenodd;stroke:none;stroke-width:0.9375px;stroke-linecap:butt;stroke-linejoin:miter;stroke-opacity:1"
               d="M 811.07708,1117.6841 800.87009,950.2378 c -14.4185,-28.35323 -26.00463,-37.35196 -36.08906,-36.08906 l -5.37497,4.60712 c -12.56517,66.71814 -8.77097,127.36104 10.43188,187.58084 z"
               id="path4543"
               inkscape:connector-curvature="0"
               sodipodi:nodetypes="cccccc" />
            <path
               style="fill:#af8dec;fill-opacity:1;fill-rule:evenodd;stroke:none;stroke-width:0.9375px;stroke-linecap:butt;stroke-linejoin:miter;stroke-opacity:1"
               d="m 767.08459,914.14874 c -65.70503,48.4555 -66.59633,178.96396 32.2498,287.94466 -73.61034,-208.11092 -38.84213,-280.23785 -32.2498,-287.94466 z"
               id="path4545"
               inkscape:connector-curvature="0"
               sodipodi:nodetypes="ccc" />
            <path
               style="fill:#53177e;fill-opacity:1;fill-rule:evenodd;stroke:none;stroke-width:0.9375px;stroke-linecap:butt;stroke-linejoin:miter;stroke-opacity:1"
               d="m 799.33439,1202.0934 c 40.89878,2.5811 228.86801,-89.9421 204.24871,-173.5347 -41.5071,84.7224 -138.82041,120.0938 -204.24871,173.5347 z"
               id="path4549"
               inkscape:connector-curvature="0"
               sodipodi:nodetypes="ccc" />
            <g
               id="g4582"
               transform="rotate(-2.9057045,1077.3396,1169.5007)"
               inkscape:transform-center-x="-18.860259"
               inkscape:transform-center-y="-70.802623">
              <path
                 inkscape:transform-center-y="-67.695691"
                 inkscape:transform-center-x="-33.57007"
                 inkscape:connector-curvature="0"
                 id="path4553"
                 d="m 851.21156,1002.252 c -7.03309,0.9545 -15.01106,9.319 -14.00257,13.7268 l 13.24506,26.1609 c -1.24419,1.7107 -2.44251,3.8869 -3.45418,6.4214 l -4.61664,11.5665 c -0.64827,-12.0969 -1.76048,-30.2012 -2.59101,-29.4064 -8.49208,-12.1281 -22.87121,11.2432 -19.77069,16.9328 l 19.51389,19.6087 -24.54238,61.485 c -2.96842,7.4368 -3.18858,14.9453 -0.49538,16.8338 2.6932,1.8886 7.25043,-2.5795 10.21885,-10.0163 l 19.21073,-48.1283 c 7.89586,1.2317 26.85098,4.0539 26.32879,2.5927 10.54346,-8.8596 -4.17454,-31.8532 -8.95994,-28.8483 l -13.30157,16.0666 8.72739,-21.867 c 0.20072,-0.5028 0.38758,-1.0065 0.56313,-1.5081 8.63135,-0.021 26.15872,-0.2205 25.54569,-1.5168 9.68691,-10.4371 -6.96505,-30.9881 -11.45162,-27.26 l -12.2841,18.7818 c -0.063,-2.5496 -0.68228,-4.4938 -1.8761,-5.331 -0.61202,-0.4291 -1.32305,-0.5136 -2.08712,-0.326 2.35467,-11.6898 5.93085,-30.1385 4.92707,-29.7352 -1.73814,-5.2002 -5.16329,-6.7335 -8.8473,-6.2336 z"
                 style="fill:#fa8c00;fill-opacity:1;fill-rule:evenodd;stroke:none;stroke-width:0.95953995px;stroke-linecap:butt;stroke-linejoin:miter;stroke-opacity:1" />
              <path
                 inkscape:transform-center-y="-70.715694"
                 inkscape:transform-center-x="-11.933332"
                 style="fill:#ffd40c;fill-opacity:1;fill-rule:evenodd;stroke:none;stroke-width:0.93057263px;stroke-linecap:butt;stroke-linejoin:miter;stroke-opacity:1"
                 d="m 816.45535,1003.5938 c -6.46042,3.5797 -12.08028,14.1497 -10.0876,17.6989 l 18.72631,18.2503 c -0.78116,2.0114 -1.40945,4.4213 -1.77628,7.0793 l -1.67396,12.1288 c -3.45435,-10.5619 -8.75916,-26.3142 -9.36199,-25.2816 -10.91656,-7.5491 -19.09923,18.917 -14.81751,22.8008 l 23.14698,9.963 -8.89955,64.4759 c -1.07635,7.7986 0.47608,14.5958 3.47881,15.2398 3.00277,0.6441 6.28571,-5.1167 7.36206,-12.9154 l 6.96608,-50.4693 c 7.79337,-1.96 26.47072,-6.7859 25.63162,-7.8896 7.94198,-12.007 -11.44113,-26.8551 -15.28422,-22.3138 l -8.87237,19.5188 3.16409,-22.9305 c 0.0728,-0.5272 0.13224,-1.0499 0.18139,-1.5663 8.19835,-3.3653 24.8099,-10.3384 23.92314,-11.2594 6.75777,-13.0852 -13.89028,-25 -17.27969,-19.9281 l -7.2683,21.5514 c -0.65808,-2.2548 -1.70282,-3.7526 -3.03388,-4.0381 -0.68236,-0.1464 -1.37794,0.054 -2.06012,0.5177 -0.50479,-11.3623 -1.43445,-29.24 -2.29383,-28.4902 -2.87208,-3.9748 -6.48714,-4.0176 -9.87118,-2.1424 z"
                 id="path4578"
                 inkscape:connector-curvature="0" />
            </g>
            <path
               style="fill:#c7a0fc;fill-opacity:1;fill-rule:evenodd;stroke:none;stroke-width:0.9375px;stroke-linecap:butt;stroke-linejoin:miter;stroke-opacity:1"
               d="m 798.06399,1203.4923 c -36.46355,-26.8668 -42.50151,-38.103 -66.87468,-85.7084 55.36471,-42.7421 90.68424,-22.7268 105.72466,-13.5368 0,0 4.49794,17.6704 11.89649,19.7407 9.36955,2.622 25.85325,-13.549 25.85325,-13.549 27.55537,-5.5353 26.35367,2.6686 33.15811,7.0474 -26.41199,37.9455 -45.53451,82.5375 -109.75783,86.0061 z"
               id="path4537"
               inkscape:connector-curvature="0"
               sodipodi:nodetypes="cccaccc" />
          </g>
        </g>
        <g
           inkscape:transform-center-y="-72.949832"
           inkscape:transform-center-x="15.786443"
           transform="matrix(-0.12328923,0.0077507,0.00749836,0.13206829,183.02854,751.38004)"
           id="g5001">
          <path
             sodipodi:nodetypes="cccc"
             inkscape:connector-curvature="0"
             id="path4947"
             d="m 807.78077,2204.9087 125.92779,-916.048 -153.63203,914.731 c 13.35935,8.1726 20.07858,3.895 27.70424,1.317 z"
             style="fill:#225500;fill-opacity:1;fill-rule:evenodd;stroke:none;stroke-width:0.9375px;stroke-linecap:butt;stroke-linejoin:miter;stroke-opacity:1" />
          <g
             id="g4973">
            <g
               id="g4953"
               style="opacity:1;stroke:none"
               transform="matrix(1,0,0,1.2317125,-2.1718147,-310.88383)"
               inkscape:transform-center-x="251.8556"
               inkscape:transform-center-y="-347.0693">
              <path
                 style="opacity:1;fill:#00da00;fill-rule:evenodd;stroke:none;stroke-width:0.9375px;stroke-linecap:butt;stroke-linejoin:miter;stroke-opacity:1"
                 d="m 790.54054,2034.0224 c 0,0 64.97613,-433.8203 -61.89672,-582.0464 -111.33379,-130.0717 -496.25965,-132.4806 -496.25965,-132.4806 0,0 308.97873,75.5665 406.12934,188.9479 118.66446,138.4896 152.02703,525.5791 152.02703,525.5791 z"
                 id="path4949"
                 inkscape:connector-curvature="0"
                 sodipodi:nodetypes="cacac"
                 inkscape:transform-center-x="270.82353"
                 inkscape:transform-center-y="-314.67494" />
              <path
                 inkscape:transform-center-y="-349.88939"
                 inkscape:transform-center-x="204.35938"
                 sodipodi:nodetypes="cacsc"
                 inkscape:connector-curvature="0"
                 id="path4951"
                 d="m 784.61017,2034.0313 c 0,0 124.2667,-425.678 6.31629,-578.06 -116.78491,-150.8763 -555.64224,-137.4156 -555.64224,-137.4156 0,0 210.30508,10.4706 404.26436,82.685 202.80142,75.5065 145.06159,632.7906 145.06159,632.7906 z"
                 style="opacity:1;fill:#00ac00;fill-rule:evenodd;stroke:none;stroke-width:0.9375px;stroke-linecap:butt;stroke-linejoin:miter;stroke-opacity:1" />
            </g>
            <g
               inkscape:transform-center-y="-196.41728"
               inkscape:transform-center-x="268.08462"
               transform="matrix(0.64507476,-0.27281525,0.31689902,0.84251278,-357.55411,703.51918)"
               style="opacity:1;stroke:none"
               id="g4959">
              <path
                 inkscape:transform-center-y="-314.67494"
                 inkscape:transform-center-x="270.82353"
                 sodipodi:nodetypes="cacac"
                 inkscape:connector-curvature="0"
                 id="path4955"
                 d="m 790.54054,2034.0224 c 0,0 64.97613,-433.8203 -61.89672,-582.0464 -111.33379,-130.0717 -496.25965,-132.4806 -496.25965,-132.4806 0,0 308.97873,75.5665 406.12934,188.9479 118.66446,138.4896 152.02703,525.5791 152.02703,525.5791 z"
                 style="opacity:1;fill:#006000;fill-rule:evenodd;stroke:none;stroke-width:0.9375px;stroke-linecap:butt;stroke-linejoin:miter;stroke-opacity:1" />
              <path
                 style="opacity:1;fill:#003d00;fill-rule:evenodd;stroke:none;stroke-width:0.9375px;stroke-linecap:butt;stroke-linejoin:miter;stroke-opacity:1"
                 d="m 784.61017,2034.0313 c 0,0 124.2667,-425.678 6.31629,-578.06 -116.78491,-150.8763 -555.64224,-137.4156 -555.64224,-137.4156 0,0 210.30508,10.4706 404.26436,82.685 202.80142,75.5065 145.06159,632.7906 145.06159,632.7906 z"
                 id="path4957"
                 inkscape:connector-curvature="0"
                 sodipodi:nodetypes="cacsc"
                 inkscape:transform-center-x="204.35938"
                 inkscape:transform-center-y="-349.88939" />
            </g>
            <g
               inkscape:transform-center-y="-281.35793"
               inkscape:transform-center-x="-367.80538"
               transform="matrix(-0.95486903,-0.29702717,-0.36585208,1.1761241,2290.0859,42.655656)"
               style="opacity:1;stroke:none"
               id="g4965">
              <path
                 inkscape:transform-center-y="-314.67494"
                 inkscape:transform-center-x="270.82353"
                 sodipodi:nodetypes="cacac"
                 inkscape:connector-curvature="0"
                 id="path4961"
                 d="m 790.54054,2034.0224 c 0,0 64.97613,-433.8203 -61.89672,-582.0464 -111.33379,-130.0717 -496.25965,-132.4806 -496.25965,-132.4806 0,0 308.97873,75.5665 406.12934,188.9479 118.66446,138.4896 152.02703,525.5791 152.02703,525.5791 z"
                 style="opacity:1;fill:#001700;fill-rule:evenodd;stroke:none;stroke-width:0.9375px;stroke-linecap:butt;stroke-linejoin:miter;stroke-opacity:1" />
              <path
                 style="opacity:1;fill:#00e000;fill-rule:evenodd;stroke:none;stroke-width:0.9375px;stroke-linecap:butt;stroke-linejoin:miter;stroke-opacity:1"
                 d="m 784.61017,2034.0313 c 0,0 124.2667,-425.678 6.31629,-578.06 -116.78491,-150.8763 -555.64224,-137.4156 -555.64224,-137.4156 0,0 210.30508,10.4706 404.26436,82.685 202.80142,75.5065 145.06159,632.7906 145.06159,632.7906 z"
                 id="path4963"
                 inkscape:connector-curvature="0"
                 sodipodi:nodetypes="cacsc"
                 inkscape:transform-center-x="204.35938"
                 inkscape:transform-center-y="-349.88939" />
            </g>
            <g
               id="g4971"
               style="opacity:1;stroke:none"
               transform="matrix(-0.53492837,-0.45210756,-0.55284625,0.71036174,2348.4061,1112.5502)"
               inkscape:transform-center-x="-303.8613"
               inkscape:transform-center-y="-155.25653">
              <path
                 style="opacity:1;fill:#006300;fill-rule:evenodd;stroke:none;stroke-width:0.9375px;stroke-linecap:butt;stroke-linejoin:miter;stroke-opacity:1"
                 d="m 790.54054,2034.0224 c 0,0 64.97613,-433.8203 -61.89672,-582.0464 -111.33379,-130.0717 -496.25965,-132.4806 -496.25965,-132.4806 0,0 308.97873,75.5665 406.12934,188.9479 118.66446,138.4896 152.02703,525.5791 152.02703,525.5791 z"
                 id="path4967"
                 inkscape:connector-curvature="0"
                 sodipodi:nodetypes="cacac"
                 inkscape:transform-center-x="270.82353"
                 inkscape:transform-center-y="-314.67494" />
              <path
                 inkscape:transform-center-y="-349.88939"
                 inkscape:transform-center-x="204.35938"
                 sodipodi:nodetypes="cacsc"
                 inkscape:connector-curvature="0"
                 id="path4969"
                 d="m 784.61017,2034.0313 c 0,0 124.2667,-425.678 6.31629,-578.06 -116.78491,-150.8763 -555.64224,-137.4156 -555.64224,-137.4156 0,0 210.30508,10.4706 404.26436,82.685 202.80142,75.5065 145.06159,632.7906 145.06159,632.7906 z"
                 style="opacity:1;fill:#006a00;fill-rule:evenodd;stroke:none;stroke-width:0.9375px;stroke-linecap:butt;stroke-linejoin:miter;stroke-opacity:1" />
            </g>
          </g>
          <g
             id="g4999"
             transform="matrix(1.0862591,0,0,1.0862591,61.524551,91.010582)">
            <path
               inkscape:transform-center-y="-87.742003"
               inkscape:transform-center-x="-36.626495"
               sodipodi:nodetypes="cccc"
               inkscape:connector-curvature="0"
               id="path4975"
               d="m 745.46707,1180.5046 18.58657,175.3056 81.80702,-165.0741 c -42.85398,15.7462 -49.63075,11.7582 -100.39359,-10.2315 z"
               style="fill:#008000;fill-rule:evenodd;stroke:none;stroke-width:0.86305374px;stroke-linecap:butt;stroke-linejoin:miter;stroke-opacity:1" />
            <path
               sodipodi:nodetypes="ccscc"
               inkscape:connector-curvature="0"
               id="path4977"
               d="m 797.32047,1202.1628 c -60.39181,-27.7397 -108.95612,-95.9713 -102.98619,-239.24961 0,0 10.2624,-87.95231 57.49852,-95.52788 59.7881,-9.58861 77.09941,69.49807 77.09941,69.49807 z"
               style="fill:#371f6a;fill-opacity:1;fill-rule:evenodd;stroke:none;stroke-width:0.9375px;stroke-linecap:butt;stroke-linejoin:miter;stroke-opacity:1" />
            <path
               sodipodi:nodetypes="caccc"
               inkscape:connector-curvature="0"
               id="path4979"
               d="m 681.85297,998.61251 c 0,0 -7.28466,16.54239 -3.83927,23.80339 2.40893,5.0767 14.5892,8.4464 14.5892,8.4464 34.55126,56.877 24.56827,127.1572 104.00428,169.5126 C 609.41946,1145.1751 638.78264,1019.8997 681.85297,998.61251 Z"
               style="fill:#734eae;fill-opacity:1;fill-rule:evenodd;stroke:none;stroke-width:0.9375px;stroke-linecap:butt;stroke-linejoin:miter;stroke-opacity:1" />
            <path
               sodipodi:nodetypes="csac"
               inkscape:connector-curvature="0"
               id="path4981"
               d="m 794.72727,1201.3255 c 51.41094,-34.248 255.56953,-118.1397 200.40949,-190.4274 -9.95763,-13.04958 -33.04631,-15.08672 -48.3747,-9.2142 -78.11076,29.9253 -115.44868,132.6053 -152.03479,199.6416 z"
               style="fill:#bc7afc;fill-opacity:1;fill-rule:evenodd;stroke:none;stroke-width:0.9375px;stroke-linecap:butt;stroke-linejoin:miter;stroke-opacity:1" />
            <path
               sodipodi:nodetypes="caasac"
               inkscape:connector-curvature="0"
               id="path4983"
               d="m 781.17044,1090.3322 c 0,0 53.3078,49.7791 83.35916,41.821 30.67434,-8.1231 47.04493,-48.0011 52.80774,-79.2051 6.77605,-36.6905 12.50991,-86.05316 -24.73201,-109.16626 -41.61214,-25.82536 -85.0285,13.99309 -107.09982,45.96301 -19.06678,27.61785 -14.57014,65.97935 -4.33507,100.58735 z"
               style="fill:#e2c7f9;fill-opacity:1;fill-rule:evenodd;stroke:none;stroke-width:0.9375px;stroke-linecap:butt;stroke-linejoin:miter;stroke-opacity:1" />
            <path
               sodipodi:nodetypes="cccccc"
               inkscape:connector-curvature="0"
               id="path4985"
               d="M 811.07708,1117.6841 800.87009,950.2378 c -14.4185,-28.35323 -26.00463,-37.35196 -36.08906,-36.08906 l -5.37497,4.60712 c -12.56517,66.71814 -8.77097,127.36104 10.43188,187.58084 z"
               style="fill:#b799f3;fill-opacity:1;fill-rule:evenodd;stroke:none;stroke-width:0.9375px;stroke-linecap:butt;stroke-linejoin:miter;stroke-opacity:1" />
            <path
               sodipodi:nodetypes="ccc"
               inkscape:connector-curvature="0"
               id="path4987"
               d="m 767.08459,914.14874 c -65.70503,48.4555 -66.59633,178.96396 32.2498,287.94466 -73.61034,-208.11092 -38.84213,-280.23785 -32.2498,-287.94466 z"
               style="fill:#af8dec;fill-opacity:1;fill-rule:evenodd;stroke:none;stroke-width:0.9375px;stroke-linecap:butt;stroke-linejoin:miter;stroke-opacity:1" />
            <path
               sodipodi:nodetypes="ccc"
               inkscape:connector-curvature="0"
               id="path4989"
               d="m 799.33439,1202.0934 c 40.89878,2.5811 228.86801,-89.9421 204.24871,-173.5347 -41.5071,84.7224 -138.82041,120.0938 -204.24871,173.5347 z"
               style="fill:#53177e;fill-opacity:1;fill-rule:evenodd;stroke:none;stroke-width:0.9375px;stroke-linecap:butt;stroke-linejoin:miter;stroke-opacity:1" />
            <g
               inkscape:transform-center-y="-70.802623"
               inkscape:transform-center-x="-18.860259"
               transform="rotate(-2.9057045,1077.3396,1169.5007)"
               id="g4995">
              <path
                 style="fill:#fa8c00;fill-opacity:1;fill-rule:evenodd;stroke:none;stroke-width:0.95953995px;stroke-linecap:butt;stroke-linejoin:miter;stroke-opacity:1"
                 d="m 851.21156,1002.252 c -7.03309,0.9545 -15.01106,9.319 -14.00257,13.7268 l 13.24506,26.1609 c -1.24419,1.7107 -2.44251,3.8869 -3.45418,6.4214 l -4.61664,11.5665 c -0.64827,-12.0969 -1.76048,-30.2012 -2.59101,-29.4064 -8.49208,-12.1281 -22.87121,11.2432 -19.77069,16.9328 l 19.51389,19.6087 -24.54238,61.485 c -2.96842,7.4368 -3.18858,14.9453 -0.49538,16.8338 2.6932,1.8886 7.25043,-2.5795 10.21885,-10.0163 l 19.21073,-48.1283 c 7.89586,1.2317 26.85098,4.0539 26.32879,2.5927 10.54346,-8.8596 -4.17454,-31.8532 -8.95994,-28.8483 l -13.30157,16.0666 8.72739,-21.867 c 0.20072,-0.5028 0.38758,-1.0065 0.56313,-1.5081 8.63135,-0.021 26.15872,-0.2205 25.54569,-1.5168 9.68691,-10.4371 -6.96505,-30.9881 -11.45162,-27.26 l -12.2841,18.7818 c -0.063,-2.5496 -0.68228,-4.4938 -1.8761,-5.331 -0.61202,-0.4291 -1.32305,-0.5136 -2.08712,-0.326 2.35467,-11.6898 5.93085,-30.1385 4.92707,-29.7352 -1.73814,-5.2002 -5.16329,-6.7335 -8.8473,-6.2336 z"
                 id="path4991"
                 inkscape:connector-curvature="0"
                 inkscape:transform-center-x="-33.57007"
                 inkscape:transform-center-y="-67.695691" />
              <path
                 inkscape:connector-curvature="0"
                 id="path4993"
                 d="m 816.45535,1003.5938 c -6.46042,3.5797 -12.08028,14.1497 -10.0876,17.6989 l 18.72631,18.2503 c -0.78116,2.0114 -1.40945,4.4213 -1.77628,7.0793 l -1.67396,12.1288 c -3.45435,-10.5619 -8.75916,-26.3142 -9.36199,-25.2816 -10.91656,-7.5491 -19.09923,18.917 -14.81751,22.8008 l 23.14698,9.963 -8.89955,64.4759 c -1.07635,7.7986 0.47608,14.5958 3.47881,15.2398 3.00277,0.6441 6.28571,-5.1167 7.36206,-12.9154 l 6.96608,-50.4693 c 7.79337,-1.96 26.47072,-6.7859 25.63162,-7.8896 7.94198,-12.007 -11.44113,-26.8551 -15.28422,-22.3138 l -8.87237,19.5188 3.16409,-22.9305 c 0.0728,-0.5272 0.13224,-1.0499 0.18139,-1.5663 8.19835,-3.3653 24.8099,-10.3384 23.92314,-11.2594 6.75777,-13.0852 -13.89028,-25 -17.27969,-19.9281 l -7.2683,21.5514 c -0.65808,-2.2548 -1.70282,-3.7526 -3.03388,-4.0381 -0.68236,-0.1464 -1.37794,0.054 -2.06012,0.5177 -0.50479,-11.3623 -1.43445,-29.24 -2.29383,-28.4902 -2.87208,-3.9748 -6.48714,-4.0176 -9.87118,-2.1424 z"
                 style="fill:#ffd40c;fill-opacity:1;fill-rule:evenodd;stroke:none;stroke-width:0.93057263px;stroke-linecap:butt;stroke-linejoin:miter;stroke-opacity:1"
                 inkscape:transform-center-x="-11.933332"
                 inkscape:transform-center-y="-70.715694" />
            </g>
            <path
               sodipodi:nodetypes="cccaccc"
               inkscape:connector-curvature="0"
               id="path4997"
               d="m 798.06399,1203.4923 c -36.46355,-26.8668 -42.50151,-38.103 -66.87468,-85.7084 55.36471,-42.7421 90.68424,-22.7268 105.72466,-13.5368 0,0 4.49794,17.6704 11.89649,19.7407 9.36955,2.622 25.85325,-13.549 25.85325,-13.549 27.55537,-5.5353 26.35367,2.6686 33.15811,7.0474 -26.41199,37.9455 -45.53451,82.5375 -109.75783,86.0061 z"
               style="fill:#c7a0fc;fill-opacity:1;fill-rule:evenodd;stroke:none;stroke-width:0.9375px;stroke-linecap:butt;stroke-linejoin:miter;stroke-opacity:1" />
          </g>
        </g>
        <g
           id="g5057"
           transform="matrix(0.13337091,0.03268137,-0.03326975,0.13577205,124.74796,724.63129)"
           inkscape:transform-center-x="-30.569739"
           inkscape:transform-center-y="-74.109152">
          <path
             style="fill:#225500;fill-opacity:1;fill-rule:evenodd;stroke:none;stroke-width:0.9375px;stroke-linecap:butt;stroke-linejoin:miter;stroke-opacity:1"
             d="m 807.78077,2204.9087 125.92779,-916.048 -153.63203,914.731 c 13.35935,8.1726 20.07858,3.895 27.70424,1.317 z"
             id="path5003"
             inkscape:connector-curvature="0"
             sodipodi:nodetypes="cccc" />
          <g
             id="g5029">
            <g
               inkscape:transform-center-y="-347.0693"
               inkscape:transform-center-x="251.8556"
               transform="matrix(1,0,0,1.2317125,-2.1718147,-310.88383)"
               style="opacity:1;stroke:none"
               id="g5009">
              <path
                 inkscape:transform-center-y="-314.67494"
                 inkscape:transform-center-x="270.82353"
                 sodipodi:nodetypes="cacac"
                 inkscape:connector-curvature="0"
                 id="path5005"
                 d="m 790.54054,2034.0224 c 0,0 64.97613,-433.8203 -61.89672,-582.0464 -111.33379,-130.0717 -496.25965,-132.4806 -496.25965,-132.4806 0,0 308.97873,75.5665 406.12934,188.9479 118.66446,138.4896 152.02703,525.5791 152.02703,525.5791 z"
                 style="opacity:1;fill:#00da00;fill-rule:evenodd;stroke:none;stroke-width:0.9375px;stroke-linecap:butt;stroke-linejoin:miter;stroke-opacity:1" />
              <path
                 style="opacity:1;fill:#00ac00;fill-rule:evenodd;stroke:none;stroke-width:0.9375px;stroke-linecap:butt;stroke-linejoin:miter;stroke-opacity:1"
                 d="m 784.61017,2034.0313 c 0,0 124.2667,-425.678 6.31629,-578.06 -116.78491,-150.8763 -555.64224,-137.4156 -555.64224,-137.4156 0,0 210.30508,10.4706 404.26436,82.685 202.80142,75.5065 145.06159,632.7906 145.06159,632.7906 z"
                 id="path5007"
                 inkscape:connector-curvature="0"
                 sodipodi:nodetypes="cacsc"
                 inkscape:transform-center-x="204.35938"
                 inkscape:transform-center-y="-349.88939" />
            </g>
            <g
               id="g5015"
               style="opacity:1;stroke:none"
               transform="matrix(0.64507476,-0.27281525,0.31689902,0.84251278,-357.55411,703.51918)"
               inkscape:transform-center-x="268.08462"
               inkscape:transform-center-y="-196.41728">
              <path
                 style="opacity:1;fill:#006000;fill-rule:evenodd;stroke:none;stroke-width:0.9375px;stroke-linecap:butt;stroke-linejoin:miter;stroke-opacity:1"
                 d="m 790.54054,2034.0224 c 0,0 64.97613,-433.8203 -61.89672,-582.0464 -111.33379,-130.0717 -496.25965,-132.4806 -496.25965,-132.4806 0,0 308.97873,75.5665 406.12934,188.9479 118.66446,138.4896 152.02703,525.5791 152.02703,525.5791 z"
                 id="path5011"
                 inkscape:connector-curvature="0"
                 sodipodi:nodetypes="cacac"
                 inkscape:transform-center-x="270.82353"
                 inkscape:transform-center-y="-314.67494" />
              <path
                 inkscape:transform-center-y="-349.88939"
                 inkscape:transform-center-x="204.35938"
                 sodipodi:nodetypes="cacsc"
                 inkscape:connector-curvature="0"
                 id="path5013"
                 d="m 784.61017,2034.0313 c 0,0 124.2667,-425.678 6.31629,-578.06 -116.78491,-150.8763 -555.64224,-137.4156 -555.64224,-137.4156 0,0 210.30508,10.4706 404.26436,82.685 202.80142,75.5065 145.06159,632.7906 145.06159,632.7906 z"
                 style="opacity:1;fill:#003d00;fill-rule:evenodd;stroke:none;stroke-width:0.9375px;stroke-linecap:butt;stroke-linejoin:miter;stroke-opacity:1" />
            </g>
            <g
               id="g5021"
               style="opacity:1;stroke:none"
               transform="matrix(-0.95486903,-0.29702717,-0.36585208,1.1761241,2290.0859,42.655656)"
               inkscape:transform-center-x="-367.80538"
               inkscape:transform-center-y="-281.35793">
              <path
                 style="opacity:1;fill:#001700;fill-rule:evenodd;stroke:none;stroke-width:0.9375px;stroke-linecap:butt;stroke-linejoin:miter;stroke-opacity:1"
                 d="m 790.54054,2034.0224 c 0,0 64.97613,-433.8203 -61.89672,-582.0464 -111.33379,-130.0717 -496.25965,-132.4806 -496.25965,-132.4806 0,0 308.97873,75.5665 406.12934,188.9479 118.66446,138.4896 152.02703,525.5791 152.02703,525.5791 z"
                 id="path5017"
                 inkscape:connector-curvature="0"
                 sodipodi:nodetypes="cacac"
                 inkscape:transform-center-x="270.82353"
                 inkscape:transform-center-y="-314.67494" />
              <path
                 inkscape:transform-center-y="-349.88939"
                 inkscape:transform-center-x="204.35938"
                 sodipodi:nodetypes="cacsc"
                 inkscape:connector-curvature="0"
                 id="path5019"
                 d="m 784.61017,2034.0313 c 0,0 124.2667,-425.678 6.31629,-578.06 -116.78491,-150.8763 -555.64224,-137.4156 -555.64224,-137.4156 0,0 210.30508,10.4706 404.26436,82.685 202.80142,75.5065 145.06159,632.7906 145.06159,632.7906 z"
                 style="opacity:1;fill:#00e000;fill-rule:evenodd;stroke:none;stroke-width:0.9375px;stroke-linecap:butt;stroke-linejoin:miter;stroke-opacity:1" />
            </g>
            <g
               inkscape:transform-center-y="-155.25653"
               inkscape:transform-center-x="-303.8613"
               transform="matrix(-0.53492837,-0.45210756,-0.55284625,0.71036174,2348.4061,1112.5502)"
               style="opacity:1;stroke:none"
               id="g5027">
              <path
                 inkscape:transform-center-y="-314.67494"
                 inkscape:transform-center-x="270.82353"
                 sodipodi:nodetypes="cacac"
                 inkscape:connector-curvature="0"
                 id="path5023"
                 d="m 790.54054,2034.0224 c 0,0 64.97613,-433.8203 -61.89672,-582.0464 -111.33379,-130.0717 -496.25965,-132.4806 -496.25965,-132.4806 0,0 308.97873,75.5665 406.12934,188.9479 118.66446,138.4896 152.02703,525.5791 152.02703,525.5791 z"
                 style="opacity:1;fill:#006300;fill-rule:evenodd;stroke:none;stroke-width:0.9375px;stroke-linecap:butt;stroke-linejoin:miter;stroke-opacity:1" />
              <path
                 style="opacity:1;fill:#006a00;fill-rule:evenodd;stroke:none;stroke-width:0.9375px;stroke-linecap:butt;stroke-linejoin:miter;stroke-opacity:1"
                 d="m 784.61017,2034.0313 c 0,0 124.2667,-425.678 6.31629,-578.06 -116.78491,-150.8763 -555.64224,-137.4156 -555.64224,-137.4156 0,0 210.30508,10.4706 404.26436,82.685 202.80142,75.5065 145.06159,632.7906 145.06159,632.7906 z"
                 id="path5025"
                 inkscape:connector-curvature="0"
                 sodipodi:nodetypes="cacsc"
                 inkscape:transform-center-x="204.35938"
                 inkscape:transform-center-y="-349.88939" />
            </g>
          </g>
          <g
             transform="matrix(1.0862591,0,0,1.0862591,61.524551,91.010582)"
             id="g5055">
            <path
               style="fill:#008000;fill-rule:evenodd;stroke:none;stroke-width:0.86305374px;stroke-linecap:butt;stroke-linejoin:miter;stroke-opacity:1"
               d="m 745.46707,1180.5046 18.58657,175.3056 81.80702,-165.0741 c -42.85398,15.7462 -49.63075,11.7582 -100.39359,-10.2315 z"
               id="path5031"
               inkscape:connector-curvature="0"
               sodipodi:nodetypes="cccc"
               inkscape:transform-center-x="-36.626495"
               inkscape:transform-center-y="-87.742003" />
            <path
               style="fill:#371f6a;fill-opacity:1;fill-rule:evenodd;stroke:none;stroke-width:0.9375px;stroke-linecap:butt;stroke-linejoin:miter;stroke-opacity:1"
               d="m 797.32047,1202.1628 c -60.39181,-27.7397 -108.95612,-95.9713 -102.98619,-239.24961 0,0 10.2624,-87.95231 57.49852,-95.52788 59.7881,-9.58861 77.09941,69.49807 77.09941,69.49807 z"
               id="path5033"
               inkscape:connector-curvature="0"
               sodipodi:nodetypes="ccscc" />
            <path
               style="fill:#734eae;fill-opacity:1;fill-rule:evenodd;stroke:none;stroke-width:0.9375px;stroke-linecap:butt;stroke-linejoin:miter;stroke-opacity:1"
               d="m 681.85297,998.61251 c 0,0 -7.28466,16.54239 -3.83927,23.80339 2.40893,5.0767 14.5892,8.4464 14.5892,8.4464 34.55126,56.877 24.56827,127.1572 104.00428,169.5126 C 609.41946,1145.1751 638.78264,1019.8997 681.85297,998.61251 Z"
               id="path5035"
               inkscape:connector-curvature="0"
               sodipodi:nodetypes="caccc" />
            <path
               style="fill:#bc7afc;fill-opacity:1;fill-rule:evenodd;stroke:none;stroke-width:0.9375px;stroke-linecap:butt;stroke-linejoin:miter;stroke-opacity:1"
               d="m 794.72727,1201.3255 c 51.41094,-34.248 255.56953,-118.1397 200.40949,-190.4274 -9.95763,-13.04958 -33.04631,-15.08672 -48.3747,-9.2142 -78.11076,29.9253 -115.44868,132.6053 -152.03479,199.6416 z"
               id="path5037"
               inkscape:connector-curvature="0"
               sodipodi:nodetypes="csac" />
            <path
               style="fill:#e2c7f9;fill-opacity:1;fill-rule:evenodd;stroke:none;stroke-width:0.9375px;stroke-linecap:butt;stroke-linejoin:miter;stroke-opacity:1"
               d="m 781.17044,1090.3322 c 0,0 53.3078,49.7791 83.35916,41.821 30.67434,-8.1231 47.04493,-48.0011 52.80774,-79.2051 6.77605,-36.6905 12.50991,-86.05316 -24.73201,-109.16626 -41.61214,-25.82536 -85.0285,13.99309 -107.09982,45.96301 -19.06678,27.61785 -14.57014,65.97935 -4.33507,100.58735 z"
               id="path5039"
               inkscape:connector-curvature="0"
               sodipodi:nodetypes="caasac" />
            <path
               style="fill:#b799f3;fill-opacity:1;fill-rule:evenodd;stroke:none;stroke-width:0.9375px;stroke-linecap:butt;stroke-linejoin:miter;stroke-opacity:1"
               d="M 811.07708,1117.6841 800.87009,950.2378 c -14.4185,-28.35323 -26.00463,-37.35196 -36.08906,-36.08906 l -5.37497,4.60712 c -12.56517,66.71814 -8.77097,127.36104 10.43188,187.58084 z"
               id="path5041"
               inkscape:connector-curvature="0"
               sodipodi:nodetypes="cccccc" />
            <path
               style="fill:#af8dec;fill-opacity:1;fill-rule:evenodd;stroke:none;stroke-width:0.9375px;stroke-linecap:butt;stroke-linejoin:miter;stroke-opacity:1"
               d="m 767.08459,914.14874 c -65.70503,48.4555 -66.59633,178.96396 32.2498,287.94466 -73.61034,-208.11092 -38.84213,-280.23785 -32.2498,-287.94466 z"
               id="path5043"
               inkscape:connector-curvature="0"
               sodipodi:nodetypes="ccc" />
            <path
               style="fill:#53177e;fill-opacity:1;fill-rule:evenodd;stroke:none;stroke-width:0.9375px;stroke-linecap:butt;stroke-linejoin:miter;stroke-opacity:1"
               d="m 799.33439,1202.0934 c 40.89878,2.5811 228.86801,-89.9421 204.24871,-173.5347 -41.5071,84.7224 -138.82041,120.0938 -204.24871,173.5347 z"
               id="path5045"
               inkscape:connector-curvature="0"
               sodipodi:nodetypes="ccc" />
            <g
               id="g5051"
               transform="rotate(-2.9057045,1077.3396,1169.5007)"
               inkscape:transform-center-x="-18.860259"
               inkscape:transform-center-y="-70.802623">
              <path
                 inkscape:transform-center-y="-67.695691"
                 inkscape:transform-center-x="-33.57007"
                 inkscape:connector-curvature="0"
                 id="path5047"
                 d="m 851.21156,1002.252 c -7.03309,0.9545 -15.01106,9.319 -14.00257,13.7268 l 13.24506,26.1609 c -1.24419,1.7107 -2.44251,3.8869 -3.45418,6.4214 l -4.61664,11.5665 c -0.64827,-12.0969 -1.76048,-30.2012 -2.59101,-29.4064 -8.49208,-12.1281 -22.87121,11.2432 -19.77069,16.9328 l 19.51389,19.6087 -24.54238,61.485 c -2.96842,7.4368 -3.18858,14.9453 -0.49538,16.8338 2.6932,1.8886 7.25043,-2.5795 10.21885,-10.0163 l 19.21073,-48.1283 c 7.89586,1.2317 26.85098,4.0539 26.32879,2.5927 10.54346,-8.8596 -4.17454,-31.8532 -8.95994,-28.8483 l -13.30157,16.0666 8.72739,-21.867 c 0.20072,-0.5028 0.38758,-1.0065 0.56313,-1.5081 8.63135,-0.021 26.15872,-0.2205 25.54569,-1.5168 9.68691,-10.4371 -6.96505,-30.9881 -11.45162,-27.26 l -12.2841,18.7818 c -0.063,-2.5496 -0.68228,-4.4938 -1.8761,-5.331 -0.61202,-0.4291 -1.32305,-0.5136 -2.08712,-0.326 2.35467,-11.6898 5.93085,-30.1385 4.92707,-29.7352 -1.73814,-5.2002 -5.16329,-6.7335 -8.8473,-6.2336 z"
                 style="fill:#fa8c00;fill-opacity:1;fill-rule:evenodd;stroke:none;stroke-width:0.95953995px;stroke-linecap:butt;stroke-linejoin:miter;stroke-opacity:1" />
              <path
                 inkscape:transform-center-y="-70.715694"
                 inkscape:transform-center-x="-11.933332"
                 style="fill:#ffd40c;fill-opacity:1;fill-rule:evenodd;stroke:none;stroke-width:0.93057263px;stroke-linecap:butt;stroke-linejoin:miter;stroke-opacity:1"
                 d="m 816.45535,1003.5938 c -6.46042,3.5797 -12.08028,14.1497 -10.0876,17.6989 l 18.72631,18.2503 c -0.78116,2.0114 -1.40945,4.4213 -1.77628,7.0793 l -1.67396,12.1288 c -3.45435,-10.5619 -8.75916,-26.3142 -9.36199,-25.2816 -10.91656,-7.5491 -19.09923,18.917 -14.81751,22.8008 l 23.14698,9.963 -8.89955,64.4759 c -1.07635,7.7986 0.47608,14.5958 3.47881,15.2398 3.00277,0.6441 6.28571,-5.1167 7.36206,-12.9154 l 6.96608,-50.4693 c 7.79337,-1.96 26.47072,-6.7859 25.63162,-7.8896 7.94198,-12.007 -11.44113,-26.8551 -15.28422,-22.3138 l -8.87237,19.5188 3.16409,-22.9305 c 0.0728,-0.5272 0.13224,-1.0499 0.18139,-1.5663 8.19835,-3.3653 24.8099,-10.3384 23.92314,-11.2594 6.75777,-13.0852 -13.89028,-25 -17.27969,-19.9281 l -7.2683,21.5514 c -0.65808,-2.2548 -1.70282,-3.7526 -3.03388,-4.0381 -0.68236,-0.1464 -1.37794,0.054 -2.06012,0.5177 -0.50479,-11.3623 -1.43445,-29.24 -2.29383,-28.4902 -2.87208,-3.9748 -6.48714,-4.0176 -9.87118,-2.1424 z"
                 id="path5049"
                 inkscape:connector-curvature="0" />
            </g>
            <path
               style="fill:#c7a0fc;fill-opacity:1;fill-rule:evenodd;stroke:none;stroke-width:0.9375px;stroke-linecap:butt;stroke-linejoin:miter;stroke-opacity:1"
               d="m 798.06399,1203.4923 c -36.46355,-26.8668 -42.50151,-38.103 -66.87468,-85.7084 55.36471,-42.7421 90.68424,-22.7268 105.72466,-13.5368 0,0 4.49794,17.6704 11.89649,19.7407 9.36955,2.622 25.85325,-13.549 25.85325,-13.549 27.55537,-5.5353 26.35367,2.6686 33.15811,7.0474 -26.41199,37.9455 -45.53451,82.5375 -109.75783,86.0061 z"
               id="path5053"
               inkscape:connector-curvature="0"
               sodipodi:nodetypes="cccaccc" />
          </g>
        </g>
      </g>
      <rect
         ry="5.9724903"
         y="1040.4172"
         x="72.212837"
         height="11.944981"
         width="126.50819"
         id="rect5417"
         style="color:#000000;clip-rule:nonzero;display:inline;overflow:visible;visibility:visible;opacity:1;isolation:auto;mix-blend-mode:normal;color-interpolation:sRGB;color-interpolation-filters:linearRGB;solid-color:#000000;solid-opacity:1;fill:#280b0b;fill-opacity:1;fill-rule:nonzero;stroke:none;stroke-width:4.6875;stroke-linecap:round;stroke-linejoin:round;stroke-miterlimit:4;stroke-dasharray:none;stroke-dashoffset:0;stroke-opacity:1;marker:none;color-rendering:auto;image-rendering:auto;shape-rendering:auto;text-rendering:auto;enable-background:accumulate" />
    </g>
  </g>
</svg>
